<svg version="1.1" xmlns="http://www.w3.org/2000/svg" xmlns:xlink="http://www.w3.org/1999/xlink" x="0px" y="0px"
	 width="3674.23px" height="2444.92px" viewBox="0 0 3674.23 2444.92"
	 style="overflow:visible;enable-background:new 0 0 3674.23 2444.92;" xml:space="preserve">
<style type="text/css">
	.st0{fill:#4CB86C;}
	.st1{fill:#E4E4E4;}
	.st2{fill:#F7F8FC;}
	.st3{fill:#232D3A;}
	.st4{fill:#CACACA;}
	.st5{fill:#35485E;}
	.st6{fill:#A9B6B6;}
	.st7{fill:#DBE4E4;}
	.st8{fill:#26A9E0;}
	.st9{fill:#FAAF40;}
	.st10{fill:#009969;}
	.st11{fill:#FFFFFF;}
</style>
<defs>
</defs>
<rect x="0" y="0" class="st0" width="3674.23" height="2444.92"/>
<g>
	<g>
		<path class="st1" d="M1867.15,2206.34l-897.39-559.95c-24.99-15.59-32.6-48.49-17.01-73.48l794.03-1272.53
			c15.59-24.99,48.49-32.6,73.48-17.01l897.39,559.95c24.99,15.59,32.6,48.49,17.01,73.48l-794.03,1272.53
			C1925.04,2214.32,1892.14,2221.93,1867.15,2206.34z"/>
		<path class="st2" d="M1853.97,2181.81l-897.39-559.95c-24.99-15.59-32.6-48.49-17.01-73.48L1733.6,275.85
			c15.59-24.99,48.49-32.6,73.48-17.01l897.39,559.95c24.99,15.59,32.6,48.49,17.01,73.48L1927.44,2164.8
			C1911.85,2189.79,1878.95,2197.4,1853.97,2181.81z"/>
	</g>
	<g>
		<path class="st3" d="M2630.23,595.37c0,0-65.64,289.65-65.64,289.65c-13.69,60.41-43.73,115.88-86.86,160.35
			c-48.74,46.93-84.47,106.56-99.16,173.05c0,0-183.15,808.2-183.15,808.2c-12.36,54.56-66.58,88.75-121.15,76.39
			c0,0-983.69-222.92-983.69-222.92c-29.74-6.74-52.78-27.31-63.85-53.4c0,0,278.79-1230.23,278.79-1230.23
			c47.38-209.1,254.66-340.49,463.74-294.49c2.01-1.11,786.36,179.29,788.64,178.7C2609.56,492.37,2641.93,543.74,2630.23,595.37z"
			/>
	</g>
	<g>
		<path class="st1" d="M2035.91,2111.68l-655.67-235.32c-22.78-8.17-34.62-33.27-26.44-56.04l513.11-1429.68
			c8.17-22.78,33.27-34.62,56.04-26.44l655.67,235.32c22.78,8.17,34.62,33.27,26.44,56.04l-513.11,1429.68
			C2083.78,2108.02,2058.68,2119.85,2035.91,2111.68z"/>
		<path class="st2" d="M2025.25,2093.16l-655.67-235.32c-22.78-8.17-34.62-33.27-26.44-56.04l513.11-1429.68
			c8.17-22.78,33.27-34.62,56.04-26.44L2567.96,581c22.78,8.17,34.62,33.27,26.44,56.04L2081.3,2066.72
			C2073.12,2089.5,2048.03,2101.34,2025.25,2093.16z"/>
	</g>
	<g>
		<path class="st4" d="M2094.15,2082.46l-883.08-245.27c-26.52-7.37-42.05-34.84-34.69-61.36l403.28-1451.95
			c7.37-26.52,34.84-42.05,61.36-34.69l883.08,245.27c26.52,7.37,42.05,34.84,34.69,61.36l-403.28,1451.95
			C2148.15,2074.3,2120.68,2089.82,2094.15,2082.46z"/>
		<path class="st2" d="M2088.63,2069.13l-883.08-245.27c-26.52-7.37-42.05-34.84-34.69-61.36l403.28-1451.95
			c7.37-26.52,34.84-42.05,61.36-34.69l883.08,245.27c26.52,7.37,42.05,34.84,34.69,61.36l-403.28,1451.95
			C2142.62,2060.97,2115.15,2076.5,2088.63,2069.13z"/>
	</g>
	<path class="st5" d="M2438.37,1198.28c0,0-191.6,845.49-191.6,845.49c-11.7,51.64-63.05,84.03-114.69,72.33
		c0,0-1041.48-236.01-1041.48-236.01c-49.44-11.19-79.94-60.48-68.81-109.14c0,0,332.98-1469.39,332.98-1469.39
		c11.13-49.13,60-79.93,109.13-68.8c0,0,936.41,212.2,936.41,212.2c51.64,11.7,84.03,63.05,72.33,114.69
		c0,0-72.9,321.68-72.9,321.68c-19.4,78.51,15.78,139.97,36.55,211.14C2445.55,1126.99,2446.29,1163.31,2438.37,1198.28z"/>
	<path class="st4" d="M1415.52,315.32c0,0-332.98,1469.39-332.98,1469.39c-11.12,48.66,19.36,97.95,68.81,109.14l-60.76-13.77
		c-29.74-6.74-52.78-27.31-63.85-53.4c-7.22-17-9.35-36.36-4.96-55.74l332.98-1469.39c11.13-49.13,60-79.93,109.13-68.8l60.76,13.77
		C1475.52,235.39,1426.65,266.19,1415.52,315.32z"/>
	<path class="st6" d="M2236.45,2028.24H1147.11c-30.33,0-54.92-24.59-54.92-54.92V428.6c0-30.33,24.59-54.92,54.92-54.92h1089.33
		c30.33,0,54.92,24.59,54.92,54.92v1544.72C2291.37,2003.65,2266.78,2028.24,2236.45,2028.24z"/>
	<path class="st2" d="M2215.22,2006.64H1125.89c-30.33,0-54.92-24.59-54.92-54.92V407c0-30.33,24.59-54.92,54.92-54.92h1089.33
		c30.33,0,54.92,24.59,54.92,54.92v1544.72C2270.14,1982.05,2245.56,2006.64,2215.22,2006.64z"/>
	<g>
		<g>
			<path class="st7" d="M1426.54,739.34c165.99-0.13,332,0.19,497.97,0c11.52,0,22.56-10.13,22.03-22.03
				c-0.53-11.94-9.68-22.03-22.03-22.03c-165.69,0.13-331.41-0.19-497.09,0c-11.84-0.47-23.46,9.8-22.92,22.03
				C1405.04,729.25,1414.19,739.34,1426.54,739.34z"/>
		</g>
	</g>
	<g>
		<g>
			<path class="st8" d="M1276.07,657.83c266.3-0.17,532.63,0.25,798.91,0c11.52,0,22.56-10.13,22.03-22.03
				c-0.53-11.94-9.68-22.03-22.03-22.03c-265.85,0.17-531.74-0.25-797.57,0c-12-0.69-23.92,9.61-23.37,22.03
				C1254.58,647.74,1263.72,657.83,1276.07,657.83z"/>
		</g>
	</g>
	<g>
		<g>
			<g>
				<g>
					<path class="st8" d="M1498.63,1034.7c195.03-0.19,390.11,0.28,585.1,0c19.46,1.19,20.59-29.29,0.99-29.38
						c-195.36,0.19-390.76-0.28-586.1,0C1479.73,1005.32,1479.7,1034.7,1498.63,1034.7z"/>
				</g>
			</g>
			<g>
				<g>
					<g id="ZCk3KR.tif_9_">
						<g>
							<path class="st9" d="M1266.33,1018.47c10.22-9.69,22.8-13.66,32.73-1.56c4.17,5.07,7.22,11.06,10.72,16.68
								c0.7,1.12,1.15,2.4,2.09,4.42c13.35-20.38,48.65-74.27,74.49-74.28c-17.98,20.97-32.7,44.3-44.32,69.34
								c-4.46,9.35-9.1,18.64-13.89,27.83c-4.48,9.09-17.04,18.22-27.39,14.5c-4.9-2.19-5.7-9.98-7.35-14.55
								c-2.4-6.65-4.92-13.29-8.31-19.51c-3.98-7.31-10.38-13.3-15.74-19.85C1268.58,1020.54,1267.62,1019.75,1266.33,1018.47z"/>
						</g>
					</g>
				</g>
			</g>
		</g>
		<g>
			<g>
				<g>
					<path class="st8" d="M1498.63,1252.11c195.03-0.19,390.11,0.28,585.1,0c19.46,1.19,20.59-29.29,0.99-29.38
						c-195.36,0.19-390.76-0.28-586.1,0C1479.73,1222.73,1479.7,1252.11,1498.63,1252.11z"/>
				</g>
			</g>
			<g>
				<g>
					<g id="ZCk3KR.tif_4_">
						<g>
							<path class="st9" d="M1266.33,1235.88c10.22-9.68,22.8-13.66,32.73-1.56c4.17,5.07,7.22,11.06,10.72,16.68
								c0.7,1.12,1.15,2.4,2.09,4.42c13.35-20.38,48.65-74.27,74.49-74.28c-17.98,20.97-32.7,44.3-44.32,69.34
								c-4.46,9.35-9.1,18.64-13.89,27.83c-4.48,9.09-17.04,18.22-27.39,14.5c-4.9-2.2-5.7-9.98-7.35-14.55
								c-2.4-6.65-4.92-13.29-8.31-19.51c-3.98-7.31-10.38-13.3-15.74-19.85C1268.58,1237.95,1267.62,1237.16,1266.33,1235.88z"/>
						</g>
					</g>
				</g>
			</g>
		</g>
		<g>
			<g>
				<g>
					<path class="st8" d="M1498.63,1469.52c195.03-0.19,390.11,0.28,585.1,0c19.46,1.19,20.59-29.29,0.99-29.38
						c-195.36,0.19-390.76-0.28-586.1,0C1479.73,1440.14,1479.7,1469.52,1498.63,1469.52z"/>
				</g>
			</g>
			<g>
				<g>
					<g id="ZCk3KR.tif_3_">
						<g>
							<path class="st9" d="M1266.33,1453.29c10.22-9.69,22.8-13.66,32.73-1.56c4.17,5.07,7.22,11.06,10.72,16.68
								c0.7,1.12,1.15,2.4,2.09,4.42c13.35-20.38,48.65-74.27,74.49-74.28c-17.98,20.97-32.7,44.3-44.32,69.34
								c-4.46,9.35-9.1,18.64-13.89,27.83c-4.48,9.09-17.04,18.22-27.39,14.5c-4.9-2.19-5.7-9.98-7.35-14.55
								c-2.4-6.65-4.92-13.29-8.31-19.51c-3.98-7.31-10.38-13.3-15.74-19.85C1268.58,1455.36,1267.62,1454.57,1266.33,1453.29z"/>
						</g>
					</g>
				</g>
			</g>
		</g>
		<g>
			<g>
				<g>
					<path class="st8" d="M1498.63,1686.93c110.97,0,221.95,0,332.92,0c18.9,0,18.93-29.37,0-29.37c-110.97,0-221.95,0-332.92,0
						C1479.73,1657.55,1479.7,1686.93,1498.63,1686.93z"/>
				</g>
			</g>
			<g>
				<g>
					<g id="ZCk3KR.tif_2_">
						<g>
							<path class="st9" d="M1266.33,1670.7c10.22-9.69,22.8-13.66,32.73-1.56c4.17,5.07,7.22,11.06,10.72,16.68
								c0.7,1.12,1.15,2.4,2.09,4.42c13.35-20.38,48.65-74.27,74.49-74.28c-17.98,20.97-32.7,44.3-44.32,69.34
								c-4.46,9.35-9.1,18.64-13.89,27.83c-4.48,9.09-17.04,18.22-27.39,14.5c-4.9-2.19-5.7-9.98-7.35-14.55
								c-2.4-6.65-4.92-13.29-8.31-19.51c-3.98-7.31-10.38-13.3-15.74-19.85C1268.58,1672.77,1267.62,1671.98,1266.33,1670.7z"/>
						</g>
					</g>
				</g>
			</g>
		</g>
	</g>
	<g>
		<g>
			<g>
				<g>
					<path d="M2038.3,1894.82c-17.98,0-35.34-4.06-51.02-11.76l143.21-65.34l8.53,18.7
						C2118.8,1872.09,2079.44,1895.19,2038.3,1894.82z"/>
					<path class="st6" d="M2226.81,2028.8l-95.76-9.7l-55.43,78.68c-27.91-61.17-66.01-144.67-93.68-205.33
						c56.07,28.63,128.54,9.01,162.48-44.21C2160.47,1883.42,2210.02,1992,2226.81,2028.8z"/>
				</g>
			</g>
			<g>
				<polygon class="st7" points="1996.52,2095.41 1956.61,2039.33 1888.17,2046.59 1956.34,1895.3 2064.69,1944.13 				"/>
			</g>
		</g>
		<g>
			<path class="st10" d="M2212.07,1790.74L2212.07,1790.74c9.16-5.28,9.16-18.49,0.01-23.78h-0.01c-7.81-4.51-9.22-15.21-2.84-21.6
				c7.37-7.29,4.19-20.19-6.16-22.97c-6.29-1.68-10.18-7.33-10.18-13.29c0-2.3,0.58-4.66,1.85-6.84c1.28-2.21,1.86-4.56,1.86-6.84
				c0-7.17-5.74-13.75-13.75-13.75c-7.78,0-13.74-6.36-13.74-13.71c-0.09-2.35,1.05-4.85,0.96-7.19c0-8.66-8.31-15.61-17.3-13.2
				c-1.2,0.32-2.41,0.47-3.58,0.47c-7.34,0-13.71-5.96-13.71-13.74c0-8.01-6.58-13.75-13.75-13.75c-2.28,0-4.63,0.58-6.84,1.86
				c-2.19,1.26-4.54,1.85-6.84,1.85c-5.95,0-11.6-3.9-13.29-10.18c-2.78-10.35-15.68-13.54-22.97-6.16
				c-6.32,6.35-17.05,5.03-21.6-2.84c-2.64-4.58-7.27-6.86-11.89-6.86s-9.25,2.29-11.89,6.86c-2.6,4.49-7.23,6.87-11.91,6.87
				c-3.48,0-6.97-1.31-9.69-4.03c-2.76-2.76-6.23-4.03-9.65-4.03c-5.87,0-11.59,3.74-13.31,10.19h-0.01
				c-2.34,8.72-12.3,12.85-20.12,8.34c-2.21-1.28-4.56-1.86-6.84-1.86c-7.17,0-13.76,5.74-13.76,13.75
				c0,7.78-6.36,13.74-13.71,13.74c-2.35,0.09-4.84-1.05-7.19-0.96c-8.66,0-15.61,8.31-13.2,17.3c2.36,8.42-4.13,17.34-13.26,17.28
				c-10.78-0.03-17.12,11.83-11.89,20.59c4.47,7.59,0.5,17.78-8.34,20.13c-6.44,1.73-10.18,7.45-10.18,13.31
				c0,3.43,1.27,6.9,4.03,9.66c2.72,2.72,4.03,6.22,4.03,9.69c0,4.68-2.38,9.32-6.87,11.91c-9.15,5.29-9.15,18.5,0,23.78
				c4.49,2.6,6.87,7.23,6.87,11.91c0,3.48-1.31,6.97-4.03,9.69c-2.76,2.76-4.03,6.23-4.03,9.65c0,5.87,3.74,11.59,10.18,13.31
				c6.28,1.68,10.19,7.33,10.19,13.29c0,2.3-0.59,4.66-1.85,6.84c-1.28,2.21-1.86,4.56-1.86,6.84c0,7.17,5.74,13.76,13.76,13.76
				c9.13-0.06,15.62,8.86,13.26,17.28v0.01c-2.74,10.2,6.61,19.55,16.81,16.82c8.42-2.36,17.34,4.13,17.28,13.26
				c-0.15,7.53,6.44,13.86,13.76,13.76c2.28,0,4.63-0.58,6.84-1.86c2.19-1.26,4.54-1.85,6.84-1.85c5.95,0,11.6,3.91,13.28,10.19
				h0.01c2.73,10.2,15.49,13.63,22.97,6.15c2.55-2.58,6.17-4.05,9.69-4.03c4.68,0,9.31,2.38,11.91,6.87c5.28,9.15,18.5,9.15,23.78,0
				c4.52-7.88,15.34-9.16,21.6-2.84c7.29,7.38,20.19,4.19,22.97-6.15c1.68-6.28,7.33-10.19,13.29-10.19c2.3,0,4.66,0.59,6.84,1.85
				c2.21,1.28,4.55,1.86,6.84,1.86c7.17,0,13.75-5.74,13.75-13.76c0-7.78,6.36-13.73,13.7-13.73c2.36-0.09,4.85,1.05,7.2,0.96
				c8.9,0.02,15.61-8.71,13.2-17.3v-0.01c-2.34-8.71,4.24-17.28,13.26-17.28c8.01,0,13.75-6.58,13.75-13.76
				c0-2.28-0.58-4.63-1.86-6.84c-1.26-2.19-1.85-4.54-1.85-6.84c0-5.95,3.9-11.6,10.18-13.29c6.45-1.72,10.18-7.45,10.18-13.31
				c0-3.43-1.27-6.9-4.03-9.65c-2.72-2.72-4.03-6.22-4.03-9.69C2205.2,1797.97,2207.58,1793.34,2212.07,1790.74z M2127.93,1868.48
				c-47.92,49.32-131.42,49.25-179.26,0c-49.17-47.18-49.18-132.08,0-179.26c47.18-49.17,132.08-49.18,179.25,0
				C2177.27,1737.11,2177.13,1820.77,2127.93,1868.48z"/>
		</g>
		<g>
			<path class="st0" d="M2154.26,1778.86c0.82,63.03-53.08,116.81-115.96,115.96c-62.97,0.85-116.82-53.07-115.96-115.96
				c-1.29-62.33,53.63-117.25,115.96-115.96C2100.63,1661.61,2155.55,1716.52,2154.26,1778.86z"/>
			<path class="st11" d="M2127.93,1689.23c-79.63-79.48-216.28-22.88-216.38,89.63c-0.93,68.73,57.91,127.68,126.76,126.75
				C2151.04,1905.11,2207.38,1769.43,2127.93,1689.23z M2038.3,1894.82c-62.97,0.85-116.82-53.07-115.96-115.96
				c-1.29-62.33,53.63-117.25,115.96-115.96c62.33-1.29,117.25,53.63,115.96,115.96C2155.08,1841.89,2101.18,1895.66,2038.3,1894.82
				z"/>
		</g>
		<g>
			<g>
				<g>
					<g>
						<g id="ZCk3KR.tif_1_">
							<g>
								<g>
									<path class="st11" d="M1973.54,1777.19c11.02-10.45,24.61-14.74,35.32-1.68c4.5,5.47,7.79,11.94,11.56,18
										c0.75,1.21,1.24,2.59,2.26,4.77c14.32-21.92,52.6-80.22,80.38-80.15c-19.4,22.62-35.29,47.81-47.83,74.82
										c-4.81,10.09-9.82,20.12-14.99,30.03c-4.77,9.76-18.47,19.69-29.55,15.65c-5.28-2.37-6.15-10.77-7.93-15.7
										c-2.59-7.18-5.31-14.34-8.97-21.06c-4.29-7.89-11.2-14.35-16.99-21.42C1975.97,1779.43,1974.94,1778.58,1973.54,1777.19z"
										/>
								</g>
							</g>
						</g>
					</g>
				</g>
			</g>
		</g>
	</g>
</g>
</svg>